<svg aria-hidden="true" style="position: absolute; width: 0; height: 0; overflow: hidden;" version="1.1" xmlns="http://www.w3.org/2000/svg" xmlns:xlink="http://www.w3.org/1999/xlink">
<defs>
<symbol id="icon-close" viewBox="0 0 32 32">
<path d="M7.2 7.2c0.212-0.212 0.5-0.331 0.8-0.331s0.588 0.119 0.8 0.331l16 16c0.212 0.212 0.331 0.5 0.331 0.8s-0.119 0.588-0.331 0.8c-0.212 0.212-0.5 0.331-0.8 0.331s-0.588-0.119-0.8-0.331l-16-16c-0.212-0.212-0.331-0.5-0.331-0.8s0.119-0.588 0.331-0.8z"></path>
<path d="M24.8 7.2c0.212 0.212 0.331 0.5 0.331 0.8s-0.119 0.588-0.331 0.8l-16 16c-0.212 0.212-0.5 0.331-0.8 0.331s-0.588-0.119-0.8-0.331c-0.212-0.212-0.331-0.5-0.331-0.8s0.119-0.588 0.331-0.8l16-16c0.212-0.212 0.5-0.331 0.8-0.331s0.588 0.119 0.8 0.331z"></path>
</symbol>
<symbol id="icon-burger" viewBox="0 0 39 32">
<path d="M1.223 29.445c0-0.92 0.746-1.667 1.666-1.668h33.333c0.897 0.030 1.613 0.765 1.613 1.667s-0.716 1.636-1.61 1.667l-0.003 0h-33.333c-0.921 0-1.668-0.747-1.668-1.668v0zM1.223 16.112c0-0.001 0-0.001 0-0.002 0-0.92 0.746-1.666 1.666-1.666 0 0 0 0 0 0h33.333c0.92 0 1.667 0.746 1.667 1.667s-0.746 1.667-1.667 1.667h-33.333c-0.001 0-0.001 0-0.002 0-0.92 0-1.666-0.746-1.666-1.666 0-0.001 0-0.001 0-0.002v0zM1.223 2.779c0-0.001 0-0.001 0-0.002 0-0.92 0.746-1.666 1.666-1.666 0 0 0 0 0 0h33.333c0.897 0.030 1.613 0.765 1.613 1.667s-0.716 1.636-1.61 1.667l-0.003 0h-33.333c-0.001 0-0.001 0-0.002 0-0.92 0-1.666-0.746-1.666-1.666 0-0.001 0-0.001 0-0.002v0z"></path>
</symbol>
<symbol id="icon-facebook" viewBox="0 0 32 32">
<path d="M20.536 28v-9.288h3.111l0.465-3.611h-3.576v-2.304c0-1.045 0.291-1.759 1.789-1.759h1.912v-3.229c-0.81-0.091-1.749-0.143-2.699-0.143-0.031 0-0.061 0-0.092 0h0.005c-2.756 0-4.643 1.683-4.643 4.773v2.661h-3.117v3.611h3.117v9.288h-11.475c-0.736 0-1.333-0.597-1.333-1.333v0-21.333c0-0.736 0.597-1.333 1.333-1.333v0h21.333c0.736 0 1.333 0.597 1.333 1.333v0 21.333c0 0.736-0.597 1.333-1.333 1.333v0h-6.131z"></path>
</symbol>
<symbol id="icon-instagram" viewBox="0 0 32 32">
<path d="M16 2.667c3.623 0 4.075 0.013 5.496 0.080 1.42 0.067 2.387 0.289 3.237 0.62 0.88 0.339 1.621 0.797 2.363 1.537 0.679 0.667 1.203 1.473 1.537 2.363 0.329 0.849 0.553 1.817 0.62 3.237 0.063 1.421 0.080 1.873 0.080 5.496s-0.013 4.075-0.080 5.496c-0.067 1.42-0.291 2.387-0.62 3.237-0.352 0.925-0.876 1.713-1.536 2.362l-0.001 0.001c-0.667 0.677-1.473 1.203-2.363 1.537-0.849 0.329-1.817 0.553-3.237 0.62-1.421 0.063-1.873 0.080-5.496 0.080s-4.075-0.013-5.496-0.080c-1.42-0.067-2.387-0.291-3.237-0.62-0.925-0.353-1.713-0.876-2.362-1.536l-0.001-0.001c-0.661-0.65-1.184-1.438-1.522-2.318l-0.015-0.045c-0.331-0.849-0.553-1.817-0.62-3.237-0.063-1.421-0.080-1.873-0.080-5.496s0.013-4.075 0.080-5.496c0.067-1.421 0.289-2.387 0.62-3.237 0.352-0.925 0.875-1.713 1.536-2.362l0.001-0.001c0.65-0.661 1.438-1.184 2.318-1.522l0.045-0.015c0.851-0.331 1.816-0.553 3.237-0.62 1.421-0.063 1.873-0.080 5.496-0.080zM16 9.333c-3.682 0-6.667 2.985-6.667 6.667s2.985 6.667 6.667 6.667v0c3.682 0 6.667-2.985 6.667-6.667s-2.985-6.667-6.667-6.667v0zM24.667 9c0-0.92-0.746-1.667-1.667-1.667s-1.667 0.746-1.667 1.667v0c0 0.92 0.746 1.667 1.667 1.667s1.667-0.746 1.667-1.667v0zM16 12c2.209 0 4 1.791 4 4s-1.791 4-4 4v0c-2.209 0-4-1.791-4-4s1.791-4 4-4v0z"></path>
</symbol>
<symbol id="icon-logo" viewBox="0 0 132 32">
<path d="M16.457 0l2.254 8.324 6.396-5.784-2.604 8.221 8.508-1.408-6.636 5.509 7.918 3.416-8.56 1.046 4.816 7.154-7.767-3.748 0.183 8.622-4.508-7.352-4.507 7.352 0.183-8.622-7.768 3.749 4.816-7.155-8.56-1.047 7.919-3.415-6.636-5.509 8.508 1.408-2.603-8.221 6.396 5.784 2.253-8.324zM41.125 22.857v-12.983h2.523v12.983h-2.523zM55.024 22.857h-2.45v-5.376c0-0.768-0.134-1.328-0.402-1.682s-0.64-0.53-1.115-0.53c-0.329 0-0.665 0.085-1.006 0.256-0.35 0.187-0.647 0.426-0.893 0.709l-0.003 0.004c-0.269 0.293-0.464 0.634-0.585 1.024v5.595h-2.45v-9.582h2.213v1.774c0.353-0.597 0.865-1.067 1.536-1.408 0.67-0.354 1.426-0.53 2.267-0.53 0.597 0 1.084 0.11 1.463 0.329 0.378 0.208 0.67 0.494 0.878 0.859 0.203 0.348 0.35 0.754 0.418 1.187l0.002 0.020c0.085 0.451 0.128 0.908 0.128 1.371v5.979zM63.701 22.857l-2.798-4.133-1.298 1.28v2.853h-2.45v-13.349h2.45v8.082l3.858-4.297h2.597l-3.566 4.059 3.822 5.504h-2.615zM67.296 22.857v-2.633h2.011v2.633h-2.011zM87.005 9.874v12.983h-2.505v-5.541h-5.888v5.541h-2.523v-12.983h2.523v5.248h5.888v-5.248h2.505zM93.741 23.040c-1.049 0-1.951-0.226-2.706-0.677-0.727-0.45-1.31-1.069-1.706-1.803l-0.012-0.025c-0.38-0.699-0.604-1.531-0.604-2.416 0-0.012 0-0.024 0-0.037v0.002c0-0.89 0.201-1.712 0.603-2.469 0.416-0.754 1.005-1.367 1.716-1.798l0.021-0.012c0.755-0.464 1.651-0.695 2.688-0.695s1.925 0.231 2.67 0.695c0.738 0.437 1.329 1.051 1.725 1.786l0.012 0.024c0.402 0.756 0.603 1.579 0.603 2.469 0 0.878-0.201 1.694-0.603 2.45-0.412 0.763-1.002 1.382-1.716 1.817l-0.021 0.012c-0.744 0.451-1.634 0.677-2.67 0.677zM91.236 18.085c0 0.56 0.11 1.061 0.329 1.499 0.209 0.415 0.514 0.755 0.886 1l0.010 0.006c0.378 0.244 0.805 0.366 1.28 0.366 0.463 0 0.883-0.122 1.262-0.366 0.378-0.256 0.677-0.597 0.896-1.024 0.231-0.439 0.347-0.939 0.347-1.499 0-0.549-0.116-1.036-0.347-1.463-0.206-0.423-0.511-0.769-0.887-1.018l-0.009-0.006c-0.348-0.24-0.779-0.384-1.243-0.384-0.007 0-0.013 0-0.020 0h0.001c-0.475 0-0.902 0.128-1.28 0.384-0.385 0.255-0.69 0.601-0.889 1.009l-0.007 0.015c-0.219 0.427-0.329 0.921-0.329 1.481zM100.314 19.273v-5.998h2.45v5.467c0 1.475 0.53 2.213 1.591 2.213 0.475 0 0.933-0.14 1.371-0.421 0.451-0.293 0.816-0.731 1.097-1.317v-5.943h2.45v6.839c0 0.268 0.042 0.457 0.128 0.567 0.085 0.098 0.238 0.158 0.457 0.183v1.993c-0.318 0.070-0.682 0.11-1.056 0.11-0.001 0-0.003 0-0.004 0h0c-0.439 0-0.799-0.098-1.079-0.293-0.26-0.2-0.436-0.497-0.475-0.835l-0.001-0.006-0.055-0.768c-0.405 0.634-0.963 1.139-1.622 1.47l-0.024 0.011c-0.671 0.329-1.408 0.494-2.213 0.494-0.987 0-1.737-0.317-2.249-0.951-0.512-0.646-0.768-1.584-0.768-2.816zM115.237 23.040c-0.008 0-0.018 0-0.028 0-0.829 0-1.624-0.147-2.36-0.418l0.047 0.015c-0.749-0.268-1.389-0.673-1.921-1.19l0.001 0.001 0.878-1.591c0.573 0.464 1.134 0.805 1.682 1.024s1.085 0.329 1.609 0.329c0.475 0 0.853-0.085 1.134-0.256 0.264-0.144 0.44-0.419 0.44-0.735 0-0.012-0-0.023-0.001-0.035l0 0.002c0-0.354-0.176-0.592-0.53-0.713-0.306-0.123-0.798-0.291-1.297-0.445l-0.184-0.049c-0.707-0.219-1.298-0.445-1.774-0.677s-0.835-0.512-1.079-0.841c-0.231-0.329-0.347-0.756-0.347-1.28 0-0.939 0.354-1.689 1.061-2.249s1.646-0.841 2.816-0.841c0.683 0 1.328 0.11 1.938 0.329 0.649 0.229 1.205 0.578 1.665 1.025l-0.001-0.001-0.987 1.554c-0.939-0.731-1.847-1.097-2.725-1.097-0.013-0-0.028-0-0.044-0-0.362 0-0.706 0.081-1.013 0.226l0.014-0.006c-0.293 0.146-0.439 0.402-0.439 0.768 0 0.341 0.14 0.585 0.421 0.731 0.293 0.146 0.731 0.304 1.317 0.475 0.756 0.231 1.396 0.457 1.92 0.677 0.537 0.219 0.939 0.5 1.207 0.841 0.281 0.341 0.421 0.805 0.421 1.39 0 0.951-0.347 1.694-1.042 2.231s-1.627 0.805-2.798 0.805zM125.188 23.040c-1.037 0-1.933-0.226-2.688-0.677-0.73-0.44-1.318-1.046-1.725-1.768l-0.012-0.024c-0.391-0.697-0.622-1.53-0.622-2.417 0-0.012 0-0.023 0-0.035v0.002c0-0.902 0.201-1.731 0.603-2.487 0.415-0.766 1.011-1.386 1.734-1.817l0.021-0.012c0.755-0.464 1.658-0.695 2.706-0.695s1.944 0.231 2.688 0.695c0.726 0.438 1.305 1.052 1.689 1.785l0.012 0.025c0.402 0.743 0.603 1.548 0.603 2.414 0 0.317-0.018 0.592-0.055 0.823h-7.406c0.060 0.743 0.335 1.328 0.823 1.755 0.45 0.397 1.045 0.64 1.697 0.64 0.008 0 0.015-0 0.023-0h-0.001c0.487 0 0.944-0.116 1.371-0.347 0.439-0.244 0.737-0.56 0.896-0.951l2.103 0.585c-0.354 0.731-0.921 1.335-1.701 1.81-0.781 0.464-1.701 0.695-2.761 0.695zM122.683 17.298h5.010c-0.073-0.72-0.347-1.298-0.823-1.737-0.464-0.451-1.030-0.677-1.701-0.677-0.658 0-1.225 0.226-1.701 0.677-0.464 0.439-0.726 1.018-0.786 1.737z"></path>
</symbol>
<symbol id="icon-youtube" viewBox="0 0 32 32">
<path d="M28.724 8.664c0.609 2.376 0.609 7.336 0.609 7.336s0 4.96-0.609 7.336c-0.339 1.313-1.329 2.347-2.584 2.696-2.279 0.635-10.14 0.635-10.14 0.635s-7.857 0-10.14-0.635c-1.26-0.355-2.249-1.387-2.584-2.696-0.609-2.376-0.609-7.336-0.609-7.336s0-4.96 0.609-7.336c0.339-1.313 1.329-2.347 2.584-2.696 2.283-0.635 10.14-0.635 10.14-0.635s7.861 0 10.14 0.635c1.26 0.355 2.249 1.387 2.584 2.696zM13.333 20.667l8-4.667-8-4.667v9.333z"></path>
</symbol>
<symbol id="icon-cart" viewBox="0 0 32 32">
<path d="M31.914 5.4l-2.914 11.6c0 0.139-0.028 0.27-0.078 0.389-0.102 0.24-0.293 0.432-0.532 0.533-0.12 0.051-0.252 0.078-0.39 0.078h-19l0.8 4h17.2c0.553 0 1 0.447 1 1s-0.447 1-1 1h-18c-0.553 0-1-0.447-1-1l-3.8-19h-3.2c-0.552 0-1-0.448-1-1s0.448-1 1-1h4c0.553 0 1 0.448 1 1l0.2 1h24.8c0.553 0 1 0.448 1 1 0 0.143-0.032 0.277-0.086 0.4zM8.6 16h3.4v-10h-5.4l2 10zM18 6h-5v10h5v-10zM24 6h-5v10h5v-10zM25 6v10h2.253l2.533-10h-4.786zM11 26c1.657 0 3 1.344 3 3s-1.343 3-3 3-3-1.344-3-3 1.343-3 3-3zM11 30c0.553 0 1-0.447 1-1s-0.447-1-1-1-1 0.447-1 1 0.447 1 1 1zM25 26c1.657 0 3 1.344 3 3s-1.343 3-3 3-3-1.344-3-3 1.343-3 3-3zM25 30c0.553 0 1-0.447 1-1s-0.447-1-1-1-1 0.447-1 1 0.447 1 1 1z"></path>
</symbol>
</defs>
</svg>
